<?xml version="1.0" standalone="no"?>
<!DOCTYPE svg PUBLIC "-//W3C//DTD SVG 20010904//EN"
 "http://www.w3.org/TR/2001/REC-SVG-20010904/DTD/svg10.dtd">
<svg version="1.0" xmlns="http://www.w3.org/2000/svg"
 width="500.000000pt" height="500.000000pt" viewBox="0 0 500.000000 500.000000"
 preserveAspectRatio="xMidYMid meet">
<metadata>
Created by potrace 1.14, written by Peter Selinger 2001-2017
</metadata>
<g transform="translate(0.000000,500.000000) scale(0.100000,-0.100000)"
fill="#000000" stroke="none">
<path d="M0 2500 l0 -2500 2500 0 2500 0 0 2500 0 2500 -2500 0 -2500 0 0
-2500z m1190 2363 c12 -54 25 -112 30 -129 l8 -31 -347 -77 c-190 -43 -427
-97 -526 -121 -99 -24 -194 -46 -211 -50 l-32 -6 -17 78 c-9 43 -23 103 -30
134 l-13 57 142 30 c77 17 321 71 541 121 220 49 408 90 417 90 13 1 21 -20
38 -96z m676 -62 c-8 -12 69 -21 173 -21 93 0 152 -12 170 -34 17 -20 -31 -62
-78 -69 -20 -3 -73 -11 -117 -17 -73 -11 -81 -14 -77 -31 10 -35 -54 -24 -122
21 l-60 40 -4 -27 -4 -28 -7 30 -8 30 -1 -33 -1 -34 -147 4 c-136 3 -151 5
-180 26 -18 13 -33 27 -33 32 0 5 19 23 42 42 23 18 39 27 35 21 -6 -10 4 -13
42 -13 39 0 51 4 51 15 0 11 -11 15 -37 16 l-38 1 30 14 c23 11 58 13 156 8
89 -5 128 -3 133 5 4 6 25 11 47 11 22 0 38 -4 35 -9z m2994 -41 c0 -3 -52
-19 -115 -35 -63 -16 -109 -32 -102 -36 6 -3 48 -12 92 -18 105 -16 125 -21
125 -32 0 -5 -12 -9 -27 -9 -48 0 -258 43 -265 54 -6 8 -8 8 -8 0 0 -18 -183
-67 -221 -59 -63 14 -54 19 66 40 l120 22 -160 38 c-88 20 -164 40 -169 43 -5
3 0 9 11 13 13 5 74 -7 167 -32 81 -21 166 -39 189 -39 29 0 75 16 147 49
l105 49 23 -21 c12 -11 22 -23 22 -27z m-1460 -78 c0 -40 -19 -75 -57 -105
-18 -14 -23 -29 -23 -63 0 -25 4 -43 9 -40 4 3 16 -3 26 -14 18 -20 18 -21 -9
-49 -26 -27 -28 -34 -21 -80 8 -61 0 -91 -25 -91 -24 0 -31 14 -60 118 -12 45
-26 82 -29 82 -4 0 -32 -22 -61 -49 -54 -48 -55 -48 -55 -107 0 -75 -21 -84
-62 -25 -20 29 -33 39 -46 35 -15 -5 -18 -2 -13 13 4 13 -6 26 -35 46 -58 40
-50 62 23 62 42 1 62 6 78 20 30 27 83 95 78 100 -2 2 -44 15 -93 30 -98 28
-120 41 -105 65 7 11 28 15 79 15 60 0 73 3 96 25 l27 25 23 -27 c34 -40 82
-38 121 3 34 37 57 48 102 48 31 1 32 -1 32 -37z m1230 -42 c43 -12 160 -108
160 -131 0 -21 -36 -49 -62 -49 -10 0 -23 -11 -28 -25 -6 -16 -14 -23 -25 -19
-8 3 -15 10 -15 16 0 5 -19 6 -46 2 -36 -5 -45 -4 -39 6 6 9 3 9 -13 1 -28
-15 -110 -11 -127 6 -9 8 -16 9 -20 3 -12 -20 -27 -10 -21 15 6 24 4 25 -34
25 -26 0 -40 -4 -40 -13 0 -7 -7 -22 -15 -33 -15 -19 -15 -19 -34 3 l-19 23
-11 -30 c-14 -42 -35 -40 -24 3 4 17 7 61 5 95 -2 49 0 63 10 60 7 -3 14 -17
16 -32 l3 -27 20 23 c18 22 19 22 34 4 8 -10 16 -22 17 -27 2 -4 23 -3 48 2
34 8 50 18 65 42 13 20 37 38 65 49 52 20 82 22 130 8z m-2053 -36 c16 -12 45
-29 66 -39 62 -29 75 -88 21 -101 -21 -6 -24 -12 -24 -58 -1 -87 -58 -175
-126 -192 -96 -24 -257 81 -316 206 -19 40 -28 49 -49 50 -38 0 -55 -19 -74
-85 -34 -123 -149 -261 -233 -282 -79 -20 -173 44 -205 140 -9 27 -21 43 -33
46 -29 5 -44 21 -44 46 0 26 95 127 142 151 51 26 275 83 431 108 185 31 218
34 329 32 71 -2 93 -6 115 -22z m-1613 -98 c24 -10 39 -26 52 -55 l18 -41 86
7 c97 6 129 -5 149 -55 13 -33 61 -381 61 -444 0 -63 -30 -92 -113 -107 -137
-24 -515 -74 -569 -75 -49 -1 -61 3 -83 24 -23 23 -28 46 -55 225 -32 217 -36
275 -19 307 14 27 81 54 152 63 l57 6 0 35 c0 81 18 92 223 123 4 0 23 -5 41
-13z m2747 -131 l50 -26 26 21 c14 11 33 20 43 20 30 0 69 -38 72 -72 3 -27
12 -37 61 -65 31 -19 57 -38 57 -44 0 -6 -25 -36 -56 -67 l-57 -56 18 -46 c9
-25 19 -52 22 -61 6 -20 -184 -172 -207 -166 -8 3 -21 6 -29 8 -9 3 -40 -53
-95 -172 -111 -240 -126 -274 -126 -285 0 -6 -5 -15 -11 -21 -11 -11 -42 1
-181 73 l-58 29 24 45 c13 25 69 133 125 240 l101 194 -24 21 -24 20 16 119
17 119 59 17 c65 18 69 23 81 110 4 30 9 58 12 63 8 13 33 8 84 -18z m1219
-575 l0 -420 -430 0 -430 0 0 420 0 420 430 0 430 0 0 -420z m-1963 229 c90
-43 135 -159 99 -252 -33 -86 -105 -137 -193 -137 -187 1 -278 226 -143 355
45 43 70 53 134 54 42 1 73 -5 103 -20z m-978 -154 c167 -35 309 -69 317 -76
8 -6 14 -26 14 -43 0 -58 -120 -599 -137 -618 -9 -10 -29 -18 -45 -18 -35 0
-586 118 -610 131 -9 5 -19 17 -23 28 -3 10 24 155 59 322 54 251 69 307 87
322 12 9 25 17 29 17 4 0 143 -29 309 -65z m-1523 -300 c184 -108 104 -385
-111 -385 -122 0 -205 85 -205 210 0 160 175 257 316 175z m341 -179 c16 3 33
7 40 9 15 5 37 -21 29 -34 -3 -5 -1 -11 5 -13 10 -3 6 -37 -17 -130 l-6 -26
85 31 85 31 -1 39 c-2 39 -2 40 58 62 64 24 75 24 75 -3 1 -44 13 -45 127 -3
61 23 116 41 122 41 11 0 16 -39 12 -97 -1 -17 5 -74 13 -126 9 -51 18 -123
22 -159 l6 -66 -68 -15 c-38 -8 -85 -18 -104 -22 -19 -4 -42 -13 -50 -20 -19
-16 -102 -34 -133 -28 -13 3 -72 -7 -131 -21 -59 -14 -114 -26 -121 -26 -8 0
-31 54 -59 141 -25 77 -52 147 -61 155 -21 22 -19 33 10 44 31 12 32 33 2 57
-30 24 -70 90 -62 103 3 5 2 10 -3 10 -6 0 -8 9 -5 19 3 12 18 23 41 28 29 7
38 14 41 33 l3 25 9 -23 c7 -18 14 -21 36 -16z m3128 -62 c9 -4 25 -24 36 -45
11 -22 22 -39 24 -39 3 0 23 11 45 25 45 28 51 30 68 13 9 -9 5 -19 -18 -43
l-31 -32 83 -36 c46 -21 87 -37 91 -37 4 0 61 36 127 80 105 71 122 79 145 70
14 -5 25 -13 25 -18 0 -5 -19 -31 -42 -57 -28 -31 -42 -56 -40 -70 3 -24 -21
-50 -38 -40 -6 3 -10 -3 -10 -14 0 -12 -8 -26 -19 -33 -17 -11 -17 -14 16 -56
49 -64 42 -77 -37 -76 -46 0 -77 7 -107 22 -47 25 -68 21 -99 -17 -19 -22 -25
-24 -47 -14 -22 10 -26 9 -36 -13 -11 -24 -44 -33 -56 -14 -9 15 -40 12 -116
-10 -71 -21 -109 -16 -109 14 0 7 62 41 138 76 75 35 140 66 145 70 4 3 -22
29 -57 58 l-64 51 -53 -20 c-50 -19 -99 -19 -99 1 0 5 19 20 43 34 31 19 43
32 44 53 7 74 16 123 23 123 5 0 16 -3 25 -6z m-1331 -59 c77 -14 150 -30 162
-34 l21 -9 -31 -169 -32 -168 -29 1 c-17 0 -54 4 -83 8 -49 7 -54 7 -50 -10 2
-14 17 -21 58 -27 30 -5 58 -12 62 -16 9 -8 -28 -211 -39 -222 -5 -5 -26 -4
-48 1 -86 20 -76 40 -130 -251 -40 -218 -46 -262 -34 -270 25 -15 -5 -32 -45
-25 -28 5 -36 12 -36 28 0 13 5 18 13 15 10 -4 25 57 61 254 26 142 45 262 42
268 -3 5 -29 12 -57 16 -31 4 -53 13 -56 22 -8 20 27 206 39 214 5 3 28 2 51
-2 65 -13 79 -11 75 8 -2 12 -22 20 -72 30 -38 6 -70 14 -72 16 -2 2 10 81 28
175 23 127 36 172 46 172 8 0 78 -11 156 -25z m1033 -131 c106 -16 112 -18
108 -38 -3 -11 -21 -133 -41 -271 -20 -137 -38 -252 -40 -254 -4 -4 -865 119
-872 124 -3 3 62 464 74 526 l5 26 327 -48 c180 -26 378 -55 439 -65z m-1712
-213 c53 -24 111 -90 126 -143 39 -147 -66 -288 -216 -288 -153 1 -256 126
-225 274 14 68 74 140 135 161 56 20 133 18 180 -4z m2753 -20 c113 -58 149
-169 92 -280 -41 -81 -140 -126 -226 -103 -193 52 -217 292 -39 385 42 23 127
21 173 -2z m-3993 -287 c110 -140 201 -263 203 -274 2 -13 -5 -23 -20 -30 -31
-13 -647 -100 -664 -93 -8 3 -14 16 -14 29 0 13 55 159 121 324 117 289 131
314 164 303 6 -2 100 -119 210 -259z m3665 -104 c85 -59 252 -173 370 -255
118 -81 219 -151 223 -155 5 -4 -22 -50 -59 -103 l-67 -96 -101 71 c-56 38
-226 156 -380 261 -153 106 -280 197 -283 203 -6 16 118 194 131 187 6 -3 81
-54 166 -113z m-753 -35 c205 -27 432 -65 458 -77 14 -6 28 -22 31 -35 6 -24
-42 -230 -133 -571 -33 -124 -51 -176 -64 -183 -33 -17 -549 80 -621 117 l-31
16 6 71 c10 118 136 599 171 652 20 30 26 30 183 10z m-517 -28 c11 -7 17 -17
12 -22 -4 -5 -1 -5 6 -1 18 11 69 -47 82 -92 20 -73 6 -137 -42 -191 -73 -81
-197 -87 -282 -12 -65 57 -75 188 -20 258 45 57 107 86 171 79 29 -2 62 -11
73 -19z m-1240 -97 c25 -25 26 -73 1 -142 -10 -29 -22 -75 -25 -102 -3 -27
-18 -69 -32 -93 -36 -62 -143 -146 -259 -203 -165 -81 -287 -100 -372 -59 -24
11 -43 25 -43 30 0 4 -25 24 -55 43 -57 37 -85 77 -85 121 0 38 15 63 81 130
32 33 89 100 126 149 37 49 79 98 93 108 39 29 99 35 332 37 206 1 219 0 238
-19z m1373 -190 c-9 -17 -28 -43 -40 -58 l-23 -27 12 30 c10 27 56 85 65 85 2
0 -4 -14 -14 -30z m-1028 -90 c55 -16 109 -34 120 -40 11 -5 184 -59 385 -121
201 -61 367 -113 369 -115 4 -3 -66 -235 -73 -242 -2 -2 -159 44 -348 101
-188 58 -415 126 -503 152 -88 26 -161 48 -162 49 -2 2 60 214 71 243 4 8 13
12 23 9 10 -3 63 -19 118 -36z m-1699 -81 c16 -18 20 -32 23 -88 1 -9 10 -12
31 -9 32 5 35 0 42 -62 2 -16 10 -26 23 -28 11 -2 27 -6 35 -9 8 -3 26 -6 40
-7 33 -1 36 -24 15 -118 -18 -77 -19 -78 -54 -84 -20 -4 -39 -8 -42 -10 -3 -2
38 -200 92 -441 69 -306 95 -439 87 -444 -14 -9 -98 -22 -104 -16 -2 2 -48
199 -101 439 l-97 435 -44 -10 c-24 -5 -44 -7 -46 -5 -1 1 -21 26 -44 54 -67
82 -74 123 -22 124 8 0 21 9 28 20 7 11 19 20 27 20 14 0 14 4 0 36 -21 50
-19 63 10 70 18 4 25 13 25 29 0 13 -4 27 -10 30 -19 12 -11 63 12 79 30 21
51 20 74 -5z m4016 -268 c164 -21 300 -40 303 -43 3 -3 -15 -164 -40 -359 -63
-486 -65 -499 -83 -499 -16 0 -555 67 -616 76 l-39 6 7 59 c3 32 10 67 16 76
5 10 28 167 50 348 23 182 43 340 46 353 6 29 -3 29 356 -17z m-2102 -37 c0
-3 -14 -23 -30 -44 l-30 -38 86 -47 c47 -26 84 -49 81 -51 -2 -3 -52 8 -109
23 -90 23 -108 25 -122 14 -9 -7 -16 -17 -16 -21 0 -4 27 -22 61 -40 33 -17
59 -34 57 -35 -2 -2 -39 5 -82 16 l-79 20 -23 -28 c-13 -15 -23 -30 -24 -33 0
-3 97 -46 216 -97 l216 -91 64 35 c68 37 96 37 115 2 7 -15 6 -34 -6 -75 l-16
-56 -65 4 -65 3 -11 -37 c-6 -21 -14 -38 -17 -38 -17 1 -44 33 -56 66 l-12 37
-197 55 c-216 61 -216 61 -216 -5 0 -29 6 -35 70 -69 39 -20 69 -39 66 -41 -2
-2 -32 3 -66 12 -34 9 -64 15 -65 13 -2 -2 -5 -14 -7 -28 -3 -22 8 -30 95 -78
54 -30 96 -56 93 -59 -3 -4 -71 13 -178 43 -15 4 -18 -1 -19 -28 -1 -18 -4
-46 -8 -61 l-6 -29 -63 42 c-72 48 -80 60 -102 155 l-17 70 -58 22 -57 22 -19
-22 -19 -22 11 30 c7 17 20 57 30 90 16 56 18 57 18 24 1 -34 4 -37 34 -42 17
-2 33 -4 35 -2 4 3 -15 85 -21 91 -2 3 -37 14 -77 25 -61 18 -86 32 -152 87
-43 36 -76 67 -73 70 2 3 48 15 102 27 l97 21 79 -33 80 -33 94 61 c173 112
165 109 281 109 56 0 102 -3 102 -6z m1140 -206 c13 -30 130 -514 130 -538 0
-10 -6 -20 -13 -23 -6 -2 -136 32 -287 77 -255 76 -275 84 -275 105 0 16 54
73 200 211 110 104 208 189 218 189 9 1 22 -9 27 -21z m-2182 -147 c116 -59
158 -221 84 -326 -45 -64 -99 -96 -174 -102 -53 -5 -72 -2 -109 17 -92 46
-133 110 -133 205 0 70 20 117 71 169 67 67 173 82 261 37z m1985 -590 c216
-77 400 -142 410 -146 33 -13 29 -48 -23 -195 -59 -166 -72 -190 -102 -190
-12 0 -201 64 -420 142 -353 125 -399 144 -404 165 -4 15 14 80 51 183 48 135
70 177 93 180 2 0 180 -63 395 -139z m-893 -78 c0 -5 9 -64 19 -133 11 -69 16
-128 12 -131 -3 -4 -197 -34 -431 -68 -234 -34 -483 -71 -554 -82 -71 -10
-131 -17 -134 -14 -7 7 -43 257 -39 269 3 9 1020 161 1100 165 15 0 27 -2 27
-6z m-2064 -57 c155 -32 422 -93 496 -113 l58 -16 0 -148 0 -147 -32 -5 c-54
-8 -672 -8 -685 1 -7 4 -15 44 -19 90 -4 46 -11 85 -15 88 -14 8 -11 40 18
160 21 90 30 114 43 114 10 0 71 -11 136 -24z m3954 -135 c157 -38 311 -75
342 -82 86 -18 84 -16 63 -108 -10 -44 -21 -85 -25 -92 -6 -8 -87 7 -311 59
-167 39 -349 81 -404 93 -55 11 -103 24 -107 28 -6 5 21 144 37 188 4 13 -21
18 405 -86z m-1388 -79 c-7 -2 -12 -11 -12 -20 -1 -9 -7 -28 -15 -42 -9 -18
-10 -29 -3 -37 6 -8 7 -13 1 -13 -5 0 -10 -7 -10 -15 0 -8 3 -15 7 -15 3 0 15
-7 26 -16 18 -14 15 -15 -33 -9 -64 7 -78 -9 -20 -24 23 -6 48 -15 56 -20 20
-13 -15 -30 -70 -32 -24 -1 -63 -10 -86 -21 -46 -20 -63 -22 -63 -9 0 5 15 15
33 21 l32 12 -58 15 c-51 14 -60 14 -75 0 -20 -17 -237 -87 -294 -94 -23 -4
-38 -2 -38 5 0 7 -10 8 -32 1 -46 -13 -52 -11 -37 8 17 20 107 63 132 63 11 0
15 4 11 11 -5 8 0 10 17 6 13 -3 31 -2 39 3 13 8 12 10 -2 10 -35 0 -17 18 40
40 31 12 66 25 78 30 14 6 25 23 33 54 6 25 15 46 19 46 4 0 17 3 28 6 18 5
26 -2 45 -36 23 -41 24 -42 69 -35 37 6 56 17 107 67 39 37 67 57 75 52 9 -6
9 -9 0 -12z"/>
<path d="M1690 4730 c0 -5 5 -10 10 -10 6 0 10 5 10 10 0 6 -4 10 -10 10 -5 0
-10 -4 -10 -10z"/>
<path d="M1760 4730 c0 -5 5 -10 10 -10 6 0 10 5 10 10 0 6 -4 10 -10 10 -5 0
-10 -4 -10 -10z"/>
<path d="M1790 4730 c0 -5 5 -10 10 -10 6 0 10 5 10 10 0 6 -4 10 -10 10 -5 0
-10 -4 -10 -10z"/>
<path d="M1860 4730 c0 -5 5 -10 10 -10 6 0 10 5 10 10 0 6 -4 10 -10 10 -5 0
-10 -4 -10 -10z"/>
<path d="M1890 4730 c0 -5 5 -10 10 -10 6 0 10 5 10 10 0 6 -4 10 -10 10 -5 0
-10 -4 -10 -10z"/>
<path d="M1960 4730 c0 -5 5 -10 10 -10 6 0 10 5 10 10 0 6 -4 10 -10 10 -5 0
-10 -4 -10 -10z"/>
<path d="M2102 4561 c-37 -7 -36 -6 -27 -43 8 -32 6 -32 55 -17 31 9 39 17 42
40 5 32 -1 33 -70 20z"/>
<path d="M2629 4518 c10 -27 41 -37 41 -14 0 8 -9 20 -19 26 -28 15 -31 13
-22 -12z"/>
<path d="M1602 4368 c-17 -17 -15 -48 3 -48 10 0 15 10 15 30 0 34 -1 35 -18
18z"/>
<path d="M851 4448 c-30 -5 -63 -16 -73 -25 -21 -18 -24 -53 -5 -53 26 1 187
27 192 31 8 9 -24 46 -42 51 -10 2 -42 0 -72 -4z"/>
<path d="M945 4080 c27 -12 43 -12 25 0 -8 5 -22 9 -30 9 -10 0 -8 -3 5 -9z"/>
<path d="M1676 3885 c-6 -7 -29 -93 -49 -191 -21 -99 -48 -227 -61 -286 -13
-58 -20 -111 -17 -116 9 -16 590 -137 601 -126 9 9 130 554 130 586 0 10 -10
20 -22 23 -13 3 -146 32 -296 64 -214 45 -276 55 -286 46z m306 -243 l3 -126
93 -50 c67 -36 94 -56 98 -73 8 -29 -11 -53 -41 -53 -17 0 -379 196 -471 255
-19 12 -20 18 -11 77 5 35 11 64 12 66 1 1 14 -3 29 -9 16 -8 29 -24 34 -43 6
-24 22 -38 67 -64 32 -18 61 -29 65 -25 4 4 15 46 25 93 9 47 19 88 21 92 2 3
20 1 39 -5 l34 -10 3 -125z m-124 -179 c4 -10 16 -18 27 -18 24 0 32 -30 11
-38 -9 -4 -22 0 -30 8 -8 8 -21 15 -30 15 -21 0 -30 18 -16 35 16 20 29 19 38
-2z m12 -143 c129 -27 245 -52 256 -55 17 -4 20 -10 16 -30 -3 -19 -9 -24 -26
-20 -11 3 -127 28 -256 55 -283 61 -270 57 -270 79 0 23 10 32 29 26 9 -2 122
-27 251 -55z"/>
<path d="M310 3480 c11 -22 23 -40 25 -40 3 0 -4 18 -15 40 -11 22 -23 40 -25
40 -3 0 4 -18 15 -40z"/>
<path d="M3588 2983 c-25 -29 -35 -55 -43 -110 -10 -77 14 -73 84 12 15 19 32
95 25 107 -9 14 -51 8 -66 -9z m32 -51 c0 -32 -25 -72 -46 -72 -9 0 -14 11
-14 31 0 41 16 69 40 69 15 0 20 -7 20 -28z"/>
<path d="M2970 2935 c0 -8 -8 -19 -17 -24 -10 -6 -12 -11 -5 -11 6 0 12 -8 12
-18 0 -12 13 -22 44 -31 25 -7 52 -21 62 -32 34 -38 76 -10 71 49 -1 23 -58
55 -82 46 -9 -4 -23 0 -33 8 -27 23 -52 30 -52 13z m124 -91 c9 -3 16 -13 16
-21 0 -20 -34 -12 -38 10 -4 19 -1 20 22 11z"/>
<path d="M3316 2886 c-20 -18 -36 -42 -35 -52 0 -17 2 -17 11 3 11 24 34 36
49 27 12 -7 11 -41 -2 -67 -19 -36 -49 -49 -49 -22 0 23 -20 18 -21 -5 -1 -11
-2 -26 -3 -32 -1 -18 33 -11 66 12 15 12 34 17 44 13 14 -5 15 -3 6 14 -8 14
-8 31 -1 58 11 39 0 85 -20 85 -5 0 -26 -15 -45 -34z"/>
<path d="M3187 2880 c-14 -11 -28 -35 -32 -53 -4 -17 -9 -40 -11 -49 -4 -14 1
-18 21 -18 25 0 26 2 20 39 -5 29 -3 40 8 44 8 3 17 17 19 31 6 31 7 31 -25 6z"/>
<path d="M2970 2760 c0 -5 5 -10 10 -10 6 0 10 5 10 10 0 6 -4 10 -10 10 -5 0
-10 -4 -10 -10z"/>
<path d="M1710 2806 c0 -3 9 -10 20 -16 11 -6 20 -8 20 -6 0 3 -9 10 -20 16
-11 6 -20 8 -20 6z"/>
<path d="M4485 2795 c0 -13 3 -21 8 -18 4 2 7 10 7 18 0 8 -3 16 -7 18 -5 3
-8 -5 -8 -18z"/>
<path d="M4614 2789 c-17 -21 -24 -49 -14 -49 5 0 14 9 20 21 14 25 9 47 -6
28z"/>
<path d="M4633 2723 c15 -2 37 -2 50 0 12 2 0 4 -28 4 -27 0 -38 -2 -22 -4z"/>
<path d="M493 2556 c-30 -60 -34 -64 -74 -70 -50 -8 -44 -22 8 -17 31 2 42 -3
89 -50 60 -59 76 -62 39 -6 -14 20 -25 42 -25 50 0 27 65 37 89 15 10 -11 10
-8 3 12 -5 14 -7 32 -4 40 3 11 1 10 -9 -2 -8 -10 -30 -19 -49 -20 -33 -3 -35
-1 -34 27 0 17 4 42 8 58 14 49 -9 29 -41 -37z"/>
<path d="M4196 1503 c-2 -10 -7 -44 -11 -75 l-6 -58 39 0 c45 0 69 20 78 67 5
26 1 37 -19 57 -30 30 -73 35 -81 9z m62 -9 c42 -29 17 -114 -34 -114 -26 0
-30 18 -18 93 7 41 18 45 52 21z"/>
<path d="M4340 1469 l21 -40 -26 -30 c-14 -17 -25 -36 -25 -42 0 -7 13 4 29
23 l29 34 15 -37 c9 -20 21 -37 27 -37 6 0 1 18 -10 40 -22 42 -20 50 13 88
26 28 11 29 -19 1 l-22 -21 -16 31 c-9 17 -21 31 -26 31 -6 0 -1 -18 10 -41z"/>
<path d="M4453 1418 c-7 -61 -6 -74 7 -80 26 -12 47 -9 70 10 20 16 21 21 10
41 -8 17 -9 26 -1 34 23 23 12 46 -26 56 -21 6 -41 11 -45 11 -3 0 -10 -33
-15 -72z m75 25 c3 -20 -1 -23 -27 -23 -27 0 -31 4 -31 26 0 22 4 25 28 22 19
-2 28 -9 30 -25z m-24 -43 c31 -11 34 -35 7 -50 -37 -19 -60 4 -45 44 7 19 6
19 38 6z"/>
<path d="M4531 1039 c-1 -9 7 -23 17 -30 15 -12 16 -12 6 1 -6 8 -14 22 -17
30 -5 13 -6 12 -6 -1z"/>
<path d="M4088 1013 c17 -2 47 -2 65 0 17 2 3 4 -33 4 -36 0 -50 -2 -32 -4z"/>
<path d="M4273 1003 c15 -2 37 -2 50 0 12 2 0 4 -28 4 -27 0 -38 -2 -22 -4z"/>
<path d="M4350 985 c0 -5 5 -17 10 -25 5 -8 10 -10 10 -5 0 6 -5 17 -10 25 -5
8 -10 11 -10 5z"/>
<path d="M4520 981 c0 -5 7 -15 17 -22 15 -13 15 -12 4 9 -12 23 -21 28 -21
13z"/>
<path d="M3346 1258 c4 -7 16 -23 27 -35 18 -21 19 -23 2 -73 -23 -69 -6 -90
25 -31 l21 41 24 -17 c14 -10 25 -28 25 -42 l0 -25 31 30 c30 29 30 29 8 32
-22 4 -48 28 -49 45 0 4 16 15 35 24 36 17 50 49 18 39 -80 -24 -101 -24 -124
0 -24 25 -56 34 -43 12z"/>
<path d="M1160 1186 c0 -3 15 -13 33 -22 17 -10 37 -23 42 -29 6 -7 28 -15 50
-18 32 -4 36 -3 18 5 -12 6 -24 21 -27 34 -6 21 -9 22 -30 13 -18 -9 -30 -7
-55 5 -17 9 -31 14 -31 12z"/>
<path d="M1078 1153 c7 -3 16 -2 19 1 4 3 -2 6 -13 5 -11 0 -14 -3 -6 -6z"/>
<path d="M1210 1080 c0 -5 7 -10 15 -10 8 0 15 5 15 10 0 6 -7 10 -15 10 -8 0
-15 -4 -15 -10z"/>
<path d="M3630 615 c0 -9 5 -15 11 -13 6 2 11 8 11 13 0 5 -5 11 -11 13 -6 2
-11 -4 -11 -13z"/>
<path d="M2508 217 c-16 -6 -28 -17 -28 -24 0 -8 12 -6 38 9 20 12 39 23 41
25 9 7 -26 0 -51 -10z"/>
</g>
</svg>
